<svg width="60" height="40" viewBox="0 0 60 40" fill="none" xmlns="http://www.w3.org/2000/svg">
  <rect width="60" height="40" rx="4" fill="white"/>
  <path d="M14.648 22.648C14.594 22.055 14.648 21.438 14.809 20.844C14.969 20.281 15.238 19.758 15.586 19.328C15.906 18.898 16.32 18.562 16.816 18.32C17.312 18.078 17.863 17.945 18.441 17.945C18.84 17.945 19.203 18.023 19.523 18.133C19.844 18.242 20.129 18.375 20.402 18.539C20.672 18.703 20.91 18.867 21.117 19.031C21.324 19.195 21.508 19.328 21.68 19.461C21.832 19.328 22.016 19.195 22.207 19.031C22.398 18.867 22.617 18.703 22.859 18.539C23.102 18.375 23.371 18.242 23.691 18.133C24.012 18.023 24.375 17.945 24.816 17.945C25.395 17.945 25.91 18.078 26.406 18.32C26.902 18.562 27.301 18.898 27.641 19.328C27.981 19.758 28.25 20.258 28.41 20.844C28.57 21.406 28.625 22.02 28.625 22.648C28.625 23.273 28.543 23.898 28.383 24.492C28.223 25.094 27.969 25.625 27.612 26.086C27.258 26.547 26.824 26.914 26.328 27.18C25.832 27.445 25.207 27.586 24.508 27.586C24.109 27.586 23.746 27.531 23.398 27.398C23.051 27.266 22.75 27.117 22.48 26.961C22.211 26.797 21.973 26.641 21.766 26.484C21.559 26.32 21.375 26.188 21.203 26.062C21.031 26.188 20.848 26.32 20.641 26.484C20.434 26.641 20.195 26.797 19.926 26.961C19.656 27.117 19.336 27.266 19.016 27.398C18.695 27.531 18.332 27.586 17.906 27.586C17.207 27.586 16.617 27.445 16.094 27.18C15.582 26.914 15.156 26.547 14.816 26.086C14.477 25.625 14.223 25.094 14.062 24.492C14.008 23.93 14.008 23.305 14.648 22.648ZM22.965 16.602C22.543 17.023 22.012 17.234 21.398 17.234C20.785 17.234 20.254 17.023 19.832 16.602C19.41 16.18 19.199 15.648 19.199 15.047C19.199 14.445 19.41 13.914 19.832 13.492C20.254 13.07 20.785 12.867 21.398 12.867C21.699 12.867 21.984 12.93 22.25 13.047C22.516 13.164 22.742 13.328 22.93 13.516C23.117 13.703 23.281 13.93 23.398 14.195C23.516 14.461 23.578 14.75 23.578 15.047C23.578 15.648 23.367 16.18 22.965 16.602ZM41.074 20C41.074 22.195 40.613 24.352 39.711 26.344C38.84 28.328 37.652 30.047 36.176 31.523C34.711 32.984 32.992 34.164 31.016 35.047C29.027 35.934 26.863 36.391 24.668 36.391C22.473 36.391 20.328 35.934 18.34 35.047C16.363 34.164 14.625 32.984 13.16 31.523C11.684 30.047 10.496 28.328 9.625 26.344C8.723 24.352 8.262 22.195 8.262 20C8.262 17.805 8.723 15.648 9.625 13.656C10.496 11.672 11.684 9.953 13.16 8.477C14.625 7.016 16.363 5.836 18.34 4.953C20.328 4.066 22.473 3.609 24.668 3.609C26.863 3.609 29.027 4.066 31.016 4.953C32.992 5.836 34.711 7.016 36.176 8.477C37.652 9.953 38.84 11.672 39.711 13.656C40.613 15.648 41.074 17.805 41.074 20ZM34.926 19.625C34.988 19.766 35.02 19.883 35.02 20C35.02 20.117 34.988 20.234 34.926 20.375L34.895 20.422C34.863 20.5 34.832 20.578 34.801 20.641L34.77 20.688L34.707 20.797L34.676 20.82C34.613 20.93 34.535 21.023 34.441 21.117L34.363 21.18L34.254 21.266L34.207 21.297L34.145 21.336L33.973 21.438L33.895 21.484L33.77 21.547C33.754 21.562 33.723 21.562 33.676 21.562L33.52 21.617L33.441 21.633C33.395 21.648 33.363 21.648 33.332 21.664L33.277 21.664L33.145 21.68L33.035 21.695L32.926 21.695L32.801 21.68L32.691 21.68C32.66 21.664 32.629 21.664 32.629 21.648L32.504 21.617C32.488 21.617 32.457 21.602 32.441 21.586L32.301 21.531L32.191 21.484L32.066 21.406L31.988 21.367L31.91 21.336L31.879 21.32L31.801 21.273L31.707 21.211L31.66 21.18L31.613 21.148C31.488 21.039 31.395 20.93 31.316 20.82L31.27 20.766C31.238 20.734 31.223 20.688 31.191 20.656L31.16 20.594L31.113 20.516L31.066 20.391C31.051 20.359 31.035 20.328 31.02 20.281C31.004 20.234 30.988 20.195 30.973 20.148C30.957 20.102 30.957 20.07 30.941 20.023C30.941 20.008 30.941 20 30.926 19.992C30.91 19.883 30.895 19.773 30.895 19.648C30.895 19.523 30.91 19.414 30.926 19.32L30.941 19.273C30.957 19.227 30.957 19.195 30.973 19.148C30.988 19.102 31.004 19.07 31.02 19.023C31.035 18.977 31.051 18.945 31.066 18.914L31.113 18.789L31.16 18.695C31.191 18.664 31.223 18.617 31.27 18.57L31.316 18.508C31.395 18.398 31.488 18.289 31.613 18.18L31.66 18.148L31.707 18.117L31.801 18.055L31.879 18.008L31.91 17.992L31.988 17.961L32.066 17.93L32.191 17.852L32.301 17.805L32.441 17.75C32.457 17.734 32.488 17.734 32.504 17.719L32.629 17.688C32.645 17.688 32.66 17.672 32.691 17.672L32.801 17.656L32.926 17.641L33.035 17.641L33.145 17.656L33.277 17.672L33.332 17.672C33.363 17.688 33.395 17.688 33.441 17.703L33.52 17.719L33.676 17.773C33.723 17.773 33.754 17.789 33.77 17.789L33.895 17.852L34.02 17.93L34.098 17.992L34.145 18.023L34.207 18.07L34.254 18.086L34.363 18.172L34.441 18.258C34.535 18.336 34.613 18.445 34.676 18.555L34.707 18.578L34.77 18.688L34.801 18.703C34.832 18.781 34.863 18.844 34.895 18.922L34.926 18.969C34.957 19.02 34.988 19.086 35.004 19.156V19.172C34.988 19.188 34.988 19.219 34.988 19.266L34.988 19.328V19.391L34.988 19.453V19.5C34.957 19.547 34.941 19.594 34.926 19.625ZM48.645 19.625C48.707 19.766 48.738 19.883 48.738 20C48.738 20.117 48.707 20.234 48.645 20.375L48.613 20.422C48.582 20.5 48.551 20.578 48.52 20.641L48.488 20.688L48.426 20.797L48.395 20.82C48.332 20.93 48.254 21.023 48.16 21.117L48.082 21.18L47.973 21.266L47.926 21.297L47.863 21.336L47.691 21.438L47.613 21.484L47.488 21.547C47.473 21.562 47.441 21.562 47.395 21.562L47.238 21.617L47.16 21.633C47.113 21.648 47.082 21.648 47.051 21.664L46.996 21.664L46.863 21.68L46.754 21.695L46.645 21.695L46.52 21.68L46.41 21.68C46.379 21.664 46.348 21.664 46.348 21.648L46.223 21.617C46.207 21.617 46.176 21.602 46.16 21.586L46.02 21.531L45.91 21.484L45.785 21.406L45.707 21.367L45.629 21.336L45.598 21.32L45.52 21.273L45.426 21.211L45.379 21.18L45.332 21.148C45.207 21.039 45.113 20.93 45.035 20.82L44.988 20.766C44.957 20.734 44.941 20.688 44.91 20.656L44.879 20.594L44.832 20.516L44.785 20.391C44.77 20.359 44.754 20.328 44.738 20.281C44.723 20.234 44.707 20.195 44.691 20.148C44.676 20.102 44.676 20.07 44.66 20.023C44.66 20.008 44.66 20 44.645 19.992C44.629 19.883 44.613 19.773 44.613 19.648C44.613 19.523 44.629 19.414 44.645 19.32L44.66 19.273C44.676 19.227 44.676 19.195 44.691 19.148C44.707 19.102 44.723 19.07 44.738 19.023C44.754 18.977 44.77 18.945 44.785 18.914L44.832 18.789L44.879 18.695C44.91 18.664 44.941 18.617 44.988 18.57L45.035 18.508C45.113 18.398 45.207 18.289 45.332 18.18L45.379 18.148L45.426 18.117L45.52 18.055L45.598 18.008L45.629 17.992L45.707 17.961L45.785 17.93L45.91 17.852L46.02 17.805L46.16 17.75C46.176 17.734 46.207 17.734 46.223 17.719L46.348 17.688C46.363 17.688 46.379 17.672 46.41 17.672L46.52 17.656L46.645 17.641L46.754 17.641L46.863 17.656L46.996 17.672L47.051 17.672C47.082 17.688 47.113 17.688 47.16 17.703L47.238 17.719L47.395 17.773C47.441 17.773 47.473 17.789 47.488 17.789L47.613 17.852L47.738 17.93L47.816 17.992L47.863 18.023L47.926 18.07L47.973 18.086L48.082 18.172L48.16 18.258C48.254 18.336 48.332 18.445 48.395 18.555L48.426 18.578L48.488 18.688L48.52 18.703C48.551 18.781 48.582 18.844 48.613 18.922L48.645 18.969C48.676 19.02 48.707 19.086 48.723 19.156V19.172C48.707 19.188 48.707 19.219 48.707 19.266L48.707 19.328V19.391L48.707 19.453V19.5C48.676 19.547 48.66 19.594 48.645 19.625Z" fill="black"/>
</svg> 