<svg width="60" height="40" viewBox="0 0 60 40" fill="none" xmlns="http://www.w3.org/2000/svg">
  <rect width="60" height="40" rx="4" fill="white"/>
  <path d="M24.0718 25H20.9425L18.2069 15.8373C18.0992 15.4654 17.9012 15.1348 17.6316 14.9401C16.9536 14.4517 16.1857 14.0553 15.3333 13.8019V13.4642H20.2645C20.9425 13.4642 21.452 13.9526 21.5408 14.5747L22.9365 21.4546L25.8409 13.4642H28.8827L24.0718 25ZM30.1894 25H27.2366L30.1894 13.4642H33.1422L30.1894 25ZM38.0975 16.9684C38.0975 16.3463 37.5879 15.858 36.9099 15.858C35.9336 15.858 35.2556 16.5981 35.2556 17.5749C35.2556 18.4599 35.6763 19.0101 36.6526 19.4984C37.5401 19.9868 38.6053 20.5789 38.6053 22.1893C38.6053 24.0842 36.9788 25 35.3444 25C34.2792 25 33.2138 24.7466 32.4447 24.2582C32.2668 24.1407 32.2668 23.989 32.2668 23.7773L32.7764 21.6312C32.7764 21.4796 32.9544 21.328 33.0432 21.328C33.2212 21.328 33.3099 21.4796 33.4879 21.5974C34.0852 22.0241 34.9419 22.1893 35.443 22.1893C36.3304 22.1893 37.0973 21.6312 37.0973 20.5207C37.0973 19.5857 36.4192 19.0974 35.5318 18.6508C34.6445 18.2042 33.4879 17.4641 33.4879 16.0336C33.4879 14.3061 34.8837 13.2773 36.5182 13.2773C37.4945 13.2773 38.4708 13.4806 39.1489 13.9526C39.3269 14.0553 39.3269 14.207 39.3269 14.4186L38.8173 16.4803C38.8173 16.6319 38.6393 16.7835 38.5506 16.7835C38.3727 16.7835 38.284 16.6319 38.1949 16.5981C37.6854 16.2603 37.0085 16.1525 36.5878 16.1525C36.0782 16.1347 35.6763 16.4087 35.6763 16.9684H38.0975Z" fill="#1434CB"/>
</svg> 