<svg width="56" height="56" viewBox="0 0 56 56" fill="none" xmlns="http://www.w3.org/2000/svg">
  <rect width="56" height="56" rx="28" fill="#10B981" fill-opacity="0.1"/>
  <path d="M28 32.6667L23.3333 38.5L21 32.6667L15.1667 30.3333L21 28L23.3333 22.1667L25.6667 28L31.5 30.3333L25.6667 32.6667H28Z" stroke="#10B981" stroke-width="2.8" stroke-linecap="round" stroke-linejoin="round"/>
  <path d="M35 25.6667L36.1667 28L38.5 29.1667L36.1667 30.3333L35 32.6667L33.8333 30.3333L31.5 29.1667L33.8333 28L35 25.6667Z" stroke="#10B981" stroke-width="2.8" stroke-linecap="round" stroke-linejoin="round"/>
  <path d="M37.333 18.6665L38.4997 20.9998L40.833 22.1665L38.4997 23.3332L37.333 25.6665L36.1664 23.3332L33.833 22.1665L36.1664 20.9998L37.333 18.6665Z" stroke="#10B981" stroke-width="2.8" stroke-linecap="round" stroke-linejoin="round"/>
</svg> 