<svg width="56" height="56" viewBox="0 0 56 56" fill="none" xmlns="http://www.w3.org/2000/svg">
  <rect width="56" height="56" rx="28" fill="#10B981" fill-opacity="0.1"/>
  <path d="M28 14C24.428 14 21.234 15.0799 18.5405 16.9058C15.8469 18.7317 13.8547 21.3137 13 24.3487C14.17 28.0608 16.5467 31.2169 19.5 33.2812C22.4533 35.3456 25.5333 36.1667 28 36.1667C30.4667 36.1667 33.5467 35.3456 36.5 33.2812C39.4533 31.2169 41.83 28.0608 43 24.3487C42.1453 21.3137 40.1531 18.7317 37.4595 16.9058C34.766 15.0799 31.572 14 28 14Z" stroke="#10B981" stroke-width="2.8" stroke-linejoin="round"/>
  <path d="M28 29.75C30.8995 29.75 33.25 27.3995 33.25 24.5C33.25 21.6005 30.8995 19.25 28 19.25C25.1005 19.25 22.75 21.6005 22.75 24.5C22.75 27.3995 25.1005 29.75 28 29.75Z" stroke="#10B981" stroke-width="2.8" stroke-linejoin="round"/>
</svg> 